<mxfile host="app.diagrams.net" modified="2024-05-17T01:42:21.547Z" agent="Mozilla/5.0 (Windows NT 10.0; Win64; x64) AppleWebKit/537.36 (KHTML, like Gecko) Chrome/124.0.0.0 Safari/537.36" etag="4ktnHF9oTVPTa4Nz4fS5" version="24.4.0" type="github">
  <diagram name="페이지-1" id="p-LIHdLUR8uPRrIgFfyG">
    <mxGraphModel dx="1434" dy="746" grid="1" gridSize="10" guides="1" tooltips="1" connect="1" arrows="1" fold="1" page="1" pageScale="1" pageWidth="827" pageHeight="1169" math="0" shadow="0">
      <root>
        <mxCell id="0" />
        <mxCell id="1" parent="0" />
        <mxCell id="DTszeE8S97sMGT_wAxNt-1" value="User" style="shape=umlActor;verticalLabelPosition=bottom;verticalAlign=top;html=1;outlineConnect=0;" vertex="1" parent="1">
          <mxGeometry x="210" y="270" width="80" height="150" as="geometry" />
        </mxCell>
        <mxCell id="DTszeE8S97sMGT_wAxNt-12" value="" style="html=1;whiteSpace=wrap;" vertex="1" parent="1">
          <mxGeometry x="360" y="130" width="270" height="450" as="geometry" />
        </mxCell>
        <mxCell id="DTszeE8S97sMGT_wAxNt-11" value="System-Online Schedule Management" style="text;strokeColor=none;align=center;fillColor=none;html=1;verticalAlign=middle;whiteSpace=wrap;rounded=0;" vertex="1" parent="1">
          <mxGeometry x="360" y="140" width="270" height="30" as="geometry" />
        </mxCell>
        <mxCell id="DTszeE8S97sMGT_wAxNt-13" value="View -&amp;nbsp; schedule" style="ellipse;whiteSpace=wrap;html=1;align=center;" vertex="1" parent="1">
          <mxGeometry x="476" y="240" width="140" height="50" as="geometry" />
        </mxCell>
        <mxCell id="DTszeE8S97sMGT_wAxNt-14" value="SelectView - schedule" style="ellipse;whiteSpace=wrap;html=1;align=center;" vertex="1" parent="1">
          <mxGeometry x="470" y="320" width="146" height="50" as="geometry" />
        </mxCell>
        <mxCell id="DTszeE8S97sMGT_wAxNt-15" value="Update - schedule" style="ellipse;whiteSpace=wrap;html=1;align=center;" vertex="1" parent="1">
          <mxGeometry x="427" y="400" width="146" height="50" as="geometry" />
        </mxCell>
        <mxCell id="DTszeE8S97sMGT_wAxNt-16" value="Create - schedule" style="ellipse;whiteSpace=wrap;html=1;align=center;" vertex="1" parent="1">
          <mxGeometry x="478" y="180" width="130" height="50" as="geometry" />
        </mxCell>
        <mxCell id="DTszeE8S97sMGT_wAxNt-17" value="Delete - schedule" style="ellipse;whiteSpace=wrap;html=1;align=center;" vertex="1" parent="1">
          <mxGeometry x="424" y="470" width="146" height="50" as="geometry" />
        </mxCell>
        <mxCell id="DTszeE8S97sMGT_wAxNt-22" value="" style="endArrow=classic;html=1;rounded=0;entryX=0;entryY=0.5;entryDx=0;entryDy=0;" edge="1" parent="1" source="DTszeE8S97sMGT_wAxNt-1" target="DTszeE8S97sMGT_wAxNt-16">
          <mxGeometry width="50" height="50" relative="1" as="geometry">
            <mxPoint x="294" y="375" as="sourcePoint" />
            <mxPoint x="390" y="350" as="targetPoint" />
          </mxGeometry>
        </mxCell>
        <mxCell id="DTszeE8S97sMGT_wAxNt-23" value="" style="endArrow=classic;html=1;rounded=0;entryX=0;entryY=0.5;entryDx=0;entryDy=0;" edge="1" parent="1" target="DTszeE8S97sMGT_wAxNt-15">
          <mxGeometry width="50" height="50" relative="1" as="geometry">
            <mxPoint x="300" y="388" as="sourcePoint" />
            <mxPoint x="470" y="380" as="targetPoint" />
          </mxGeometry>
        </mxCell>
        <mxCell id="DTszeE8S97sMGT_wAxNt-24" value="" style="endArrow=classic;html=1;rounded=0;entryX=0;entryY=0.5;entryDx=0;entryDy=0;exitX=1.011;exitY=0.965;exitDx=0;exitDy=0;exitPerimeter=0;" edge="1" parent="1" source="DTszeE8S97sMGT_wAxNt-1">
          <mxGeometry width="50" height="50" relative="1" as="geometry">
            <mxPoint x="297" y="450" as="sourcePoint" />
            <mxPoint x="424" y="487" as="targetPoint" />
            <Array as="points" />
          </mxGeometry>
        </mxCell>
        <mxCell id="DTszeE8S97sMGT_wAxNt-26" value="" style="endArrow=classic;html=1;rounded=0;entryX=0.029;entryY=0.76;entryDx=0;entryDy=0;entryPerimeter=0;" edge="1" parent="1" target="DTszeE8S97sMGT_wAxNt-13">
          <mxGeometry width="50" height="50" relative="1" as="geometry">
            <mxPoint x="310" y="335" as="sourcePoint" />
            <mxPoint x="488" y="215" as="targetPoint" />
          </mxGeometry>
        </mxCell>
        <mxCell id="DTszeE8S97sMGT_wAxNt-27" value="" style="endArrow=classic;html=1;rounded=0;" edge="1" parent="1" target="DTszeE8S97sMGT_wAxNt-14">
          <mxGeometry width="50" height="50" relative="1" as="geometry">
            <mxPoint x="308" y="370" as="sourcePoint" />
            <mxPoint x="478" y="313" as="targetPoint" />
          </mxGeometry>
        </mxCell>
      </root>
    </mxGraphModel>
  </diagram>
</mxfile>
